<svg width="97" height="49" viewBox="0 0 97 49" fill="none" xmlns="http://www.w3.org/2000/svg">
<g filter="url(#filter0_d_44_134)">
<path d="M2.62 36V31.14L14.536 16.056H2.62V10.62H22.204V15.48L10.288 30.564H22.744V36H2.62ZM25.804 36V10.62H43.732V15.732H32.14V20.556H42.904V25.668H32.14V30.888H43.732V36H25.804Z" fill="#007BFF"/>
</g>
<g filter="url(#filter1_d_44_134)">
<path d="M54.28 36V16.02H46.216V10.62H68.968V16.02H60.904V36H54.28ZM65.5643 36L77.4443 10.62H82.6643L94.5443 36H87.9203L85.7243 30.852H74.3843L72.1883 36H65.5643ZM80.0003 17.532L76.5443 25.776H83.5283L80.0723 17.532H80.0003Z" fill="black"/>
</g>
<defs>
<filter id="filter0_d_44_134" x="0.619995" y="10.62" width="45.112" height="29.38" filterUnits="userSpaceOnUse" color-interpolation-filters="sRGB">
<feFlood flood-opacity="0" result="BackgroundImageFix"/>
<feColorMatrix in="SourceAlpha" type="matrix" values="0 0 0 0 0 0 0 0 0 0 0 0 0 0 0 0 0 0 127 0" result="hardAlpha"/>
<feOffset dy="2"/>
<feGaussianBlur stdDeviation="1"/>
<feComposite in2="hardAlpha" operator="out"/>
<feColorMatrix type="matrix" values="0 0 0 0 0 0 0 0 0 0 0 0 0 0 0 0 0 0 1 0"/>
<feBlend mode="normal" in2="BackgroundImageFix" result="effect1_dropShadow_44_134"/>
<feBlend mode="normal" in="SourceGraphic" in2="effect1_dropShadow_44_134" result="shape"/>
</filter>
<filter id="filter1_d_44_134" x="44.216" y="10.62" width="52.3283" height="29.38" filterUnits="userSpaceOnUse" color-interpolation-filters="sRGB">
<feFlood flood-opacity="0" result="BackgroundImageFix"/>
<feColorMatrix in="SourceAlpha" type="matrix" values="0 0 0 0 0 0 0 0 0 0 0 0 0 0 0 0 0 0 127 0" result="hardAlpha"/>
<feOffset dy="2"/>
<feGaussianBlur stdDeviation="1"/>
<feComposite in2="hardAlpha" operator="out"/>
<feColorMatrix type="matrix" values="0 0 0 0 0 0 0 0 0 0.482353 0 0 0 0 1 0 0 0 1 0"/>
<feBlend mode="normal" in2="BackgroundImageFix" result="effect1_dropShadow_44_134"/>
<feBlend mode="normal" in="SourceGraphic" in2="effect1_dropShadow_44_134" result="shape"/>
</filter>
</defs>
</svg>
